<?xml version="1.0" encoding="UTF-8"?>
<svg version="1.1" xmlns="http://www.w3.org/2000/svg" width="133" height="133">
<path d="M0 0 C0.95202301 -0.00846954 1.90404602 -0.01693909 2.88491821 -0.02566528 C6.02326932 -0.04900955 9.16112928 -0.0500579 12.29956055 -0.04882812 C14.48903091 -0.05593209 16.67849942 -0.06363143 18.8679657 -0.07189941 C23.45516128 -0.08533897 28.04218478 -0.08691567 32.62939453 -0.08105469 C38.49375245 -0.07516433 44.35728086 -0.10572588 50.22147846 -0.14617157 C54.74352937 -0.17208545 59.26538165 -0.1749225 63.78749657 -0.17127991 C65.94875355 -0.17296821 68.11002 -0.18258268 70.27120399 -0.20042419 C73.30115027 -0.22268251 76.32943199 -0.212876 79.359375 -0.1953125 C80.24331436 -0.20857574 81.12725372 -0.22183899 82.03797913 -0.23550415 C89.06360906 -0.14138598 94.72480638 2.04118013 99.9318285 6.86258698 C105.56323877 13.25464704 106.82070996 18.84368628 106.79370117 27.04614258 C106.80217072 27.99816559 106.81064026 28.9501886 106.81936646 29.93106079 C106.84271072 33.06941189 106.84375908 36.20727186 106.8425293 39.34570312 C106.84963326 41.53517349 106.85733261 43.724642 106.86560059 45.91410828 C106.87904014 50.50130386 106.88061685 55.08832736 106.87475586 59.67553711 C106.8688655 65.53989503 106.89942705 71.40342344 106.93987274 77.26762104 C106.96578662 81.78967195 106.96862368 86.31152423 106.96498108 90.83363914 C106.96666938 92.99489613 106.97628385 95.15616257 106.99412537 97.31734657 C107.01638368 100.34729285 107.00657717 103.37557457 106.98901367 106.40551758 C107.00227692 107.28945694 107.01554016 108.1733963 107.02920532 109.0841217 C106.93508715 116.10975164 104.75252104 121.77094896 99.9311142 126.97797108 C93.53905413 132.60938135 87.95001489 133.86685253 79.74755859 133.83984375 C78.79553558 133.84831329 77.84351257 133.85678284 76.86264038 133.86550903 C73.72428928 133.8888533 70.58642931 133.88990165 67.44799805 133.88867188 C65.25852768 133.89577584 63.06905917 133.90347518 60.8795929 133.91174316 C56.29239731 133.92518272 51.70537381 133.92675942 47.11816406 133.92089844 C41.25380614 133.91500808 35.39027773 133.94556963 29.52608013 133.98601532 C25.00402923 134.0119292 20.48217694 134.01476625 15.96006203 134.01112366 C13.79880504 134.01281196 11.6375386 134.02242643 9.4763546 134.04026794 C6.44640832 134.06252626 3.4181266 134.05271975 0.38818359 134.03515625 C-0.49575577 134.04841949 -1.37969513 134.06168274 -2.29042053 134.0753479 C-9.31605047 133.98122973 -14.97724779 131.79866362 -20.18426991 126.97725677 C-25.81568017 120.58519671 -27.07315136 114.99615747 -27.04614258 106.79370117 C-27.05461212 105.84167816 -27.06308167 104.88965515 -27.07180786 103.90878296 C-27.09515213 100.77043186 -27.09620048 97.63257189 -27.0949707 94.49414062 C-27.10207467 92.30467026 -27.10977401 90.11520175 -27.11804199 87.92573547 C-27.13148155 83.33853989 -27.13305825 78.75151639 -27.12719727 74.16430664 C-27.12130691 68.29994872 -27.15186846 62.43642031 -27.19231415 56.57222271 C-27.21822803 52.0501718 -27.22106508 47.52831952 -27.21742249 43.00620461 C-27.21911079 40.84494762 -27.22872526 38.68368118 -27.24656677 36.52249718 C-27.26882509 33.4925509 -27.25901858 30.46426918 -27.24145508 27.43432617 C-27.25471832 26.55038681 -27.26798157 25.66644745 -27.28164673 24.75572205 C-27.18752855 17.73009211 -25.00496244 12.06889479 -20.1835556 6.86187267 C-13.79149554 1.2304624 -8.2024563 -0.02700878 0 0 Z " fill="#BA52C8" transform="translate(26.626220703125,-0.419921875)"/>
<path d="M0 0 C0.66 0 1.32 0 2 0 C1.49396008 2.16874252 1.00016187 3.99967627 0 6 C-0.66 6 -1.32 6 -2 6 C-2.25394531 6.55816406 -2.50789063 7.11632812 -2.76953125 7.69140625 C-4.65813805 11.23479235 -7.1887997 14.29088859 -9.63671875 17.46484375 C-11.21925785 19.8880962 -11.21925785 19.8880962 -10.88671875 22.5 C-9.90669993 25.26304865 -8.64481757 27.55593521 -7.125 30.0625 C-0.8662454 41.28613205 0.96547334 53.37236439 -2.43725586 65.82470703 C-3.23895032 68.56751073 -4.10121839 71.28760549 -5 74 C-5.66 74 -6.32 74 -7 74 C-7.04125 74.66 -7.0825 75.32 -7.125 76 C-8.89881881 82.0816645 -13.62472094 87.72809101 -19 91 C-31.84265843 96.32407385 -44.46186699 96.14033169 -58.125 96.0625 C-59.66926938 96.0574735 -61.21354034 96.05291264 -62.7578125 96.04882812 C-66.50524187 96.03791697 -70.25261049 96.02071614 -74 96 C-72.44902345 92.82299288 -70.70741496 89.9692069 -68.6875 87.0625 C-68.11386719 86.22847656 -67.54023437 85.39445312 -66.94921875 84.53515625 C-65 82 -65 82 -62.625 79.671875 C-58.85433307 75.83387473 -55.92196413 71.48520776 -52.84179688 67.08789062 C-51.60658352 65.35859193 -50.308208 63.67475904 -49 62 C-48.34 62 -47.68 62 -47 62 C-46.814375 61.34 -46.62875 60.68 -46.4375 60 C-44.71434443 56.40384925 -42.43406793 53.88813025 -39.75390625 50.96484375 C-37.9485146 49.01498959 -37.9485146 49.01498959 -36.40234375 46.75390625 C-35.93957031 46.17511719 -35.47679687 45.59632812 -35 45 C-34.34 45 -33.68 45 -33 45 C-32.7525 44.278125 -32.505 43.55625 -32.25 42.8125 C-31 40 -31 40 -28.875 37.375 C-26.69017786 35.11188022 -26.69017786 35.11188022 -27 32 C-29.475 31.01 -29.475 31.01 -32 30 C-32 29.34 -32 28.68 -32 28 C-38.6 27.34 -45.2 26.68 -52 26 C-52 21.38 -52 16.76 -52 12 C-54.97 11.505 -54.97 11.505 -58 11 C-58 10.67 -58 10.34 -58 10 C-54.4375173 9.97086179 -50.87506546 9.95315471 -47.3125 9.9375 C-45.80139648 9.92493164 -45.80139648 9.92493164 -44.25976562 9.91210938 C-43.28330078 9.90888672 -42.30683594 9.90566406 -41.30078125 9.90234375 C-40.40528564 9.89710693 -39.50979004 9.89187012 -38.5871582 9.88647461 C-35.96358241 10.00159802 -33.55706947 10.41765715 -31 11 C-31 11.66 -31 12.32 -31 13 C-29.6696875 12.938125 -29.6696875 12.938125 -28.3125 12.875 C-25.02722987 12.99897246 -22.94550705 13.61387904 -20 15 C-20 15.66 -20 16.32 -20 17 C-17.69 17.66 -15.38 18.32 -13 19 C-12.72220703 18.41573242 -12.44441406 17.83146484 -12.15820312 17.22949219 C-10.29840937 13.64946761 -7.87766958 10.50009615 -5.5 7.25 C-5.00113281 6.55261719 -4.50226563 5.85523438 -3.98828125 5.13671875 C-3.26705078 4.14865234 -3.26705078 4.14865234 -2.53125 3.140625 C-2.09361328 2.53766602 -1.65597656 1.93470703 -1.20507812 1.31347656 C-0.60856445 0.66330566 -0.60856445 0.66330566 0 0 Z " fill="#FCF7FC" transform="translate(102,18)"/>
<path d="M0 0 C1.084021 0.00523682 2.16804199 0.01047363 3.28491211 0.01586914 C5.03964844 0.02070313 5.03964844 0.02070313 6.82983398 0.02563477 C8.67738281 0.03820312 8.67738281 0.03820312 10.56225586 0.05102539 C12.41560547 0.05779297 12.41560547 0.05779297 14.30639648 0.06469727 C17.37089703 0.07652931 20.43530307 0.09301366 23.49975586 0.11352539 C23.49975586 0.44352539 23.49975586 0.77352539 23.49975586 1.11352539 C17.06475586 1.60852539 17.06475586 1.60852539 10.49975586 2.11352539 C11.48975586 2.44352539 12.47975586 2.77352539 13.49975586 3.11352539 C13.49975586 7.73352539 13.49975586 12.35352539 13.49975586 17.11352539 C15.66538086 17.05165039 15.66538086 17.05165039 17.87475586 16.98852539 C23.27606849 16.97309307 28.26095528 17.86513036 33.49975586 19.11352539 C33.49975586 19.77352539 33.49975586 20.43352539 33.49975586 21.11352539 C35.14975586 21.44352539 36.79975586 21.77352539 38.49975586 22.11352539 C39.15600586 23.87915039 39.15600586 23.87915039 39.49975586 26.11352539 C38.53100586 27.97290039 38.53100586 27.97290039 36.99975586 29.86352539 C36.44030273 30.56348633 35.88084961 31.26344727 35.30444336 31.98461914 C33.03790734 34.6583467 30.71008154 37.27291143 28.37084961 39.88305664 C25.40943114 43.41326529 22.81848025 47.20079228 20.19897461 50.98852539 C19.63823242 51.68977539 19.07749023 52.39102539 18.49975586 53.11352539 C17.83975586 53.11352539 17.17975586 53.11352539 16.49975586 53.11352539 C16.25225586 53.69102539 16.00475586 54.26852539 15.74975586 54.86352539 C14.33292269 57.41382509 12.62348049 59.1313824 10.49975586 61.11352539 C9.47362988 58.03514745 9.37885367 55.94778243 9.38623047 52.72412109 C9.386306 51.62320633 9.38638153 50.52229156 9.38645935 49.38801575 C9.39162064 48.20044174 9.39678192 47.01286774 9.40209961 45.78930664 C9.40351456 44.57276901 9.4049295 43.35623138 9.40638733 42.10282898 C9.41199274 38.21053629 9.42454619 34.31830075 9.43725586 30.42602539 C9.44227016 27.78995851 9.44683319 25.15389073 9.45092773 22.51782227 C9.46196393 16.04970375 9.47870736 9.58161865 9.49975586 3.11352539 C8.3434668 3.14833008 8.3434668 3.14833008 7.16381836 3.18383789 C6.16092773 3.20188477 5.15803711 3.21993164 4.12475586 3.23852539 C3.12702148 3.26172852 2.12928711 3.28493164 1.10131836 3.30883789 C-1.50024414 3.11352539 -1.50024414 3.11352539 -3.50024414 1.11352539 C-2.50024414 0.11352539 -2.50024414 0.11352539 0 0 Z " fill="#B756CD" transform="translate(36.500244140625,26.886474609375)"/>
<path d="M0 0 C3.75432919 1.47273483 3.75432919 1.47273483 4.828125 3.77734375 C6.99610664 14.8782127 6.9765766 25.00412135 0.8125 34.8125 C-2.23684811 38.63529792 -5.19704064 40.86787386 -10 42 C-15.66130571 42.44356903 -21.33312501 42.2318267 -27 42 C-26.38649026 38.91881774 -25.40788223 36.82641941 -23.625 34.25 C-23.08746094 33.46625 -22.54992188 32.6825 -21.99609375 31.875 C-21.33738281 30.92625 -20.67867187 29.9775 -20 29 C-19.15681915 27.77133599 -18.31442716 26.5421304 -17.47265625 25.3125 C-11.67780708 16.85476248 -5.84255914 8.42482601 0 0 Z " fill="#C55AC4" transform="translate(78,55)"/>
<path d="M0 0 C1.084021 0.00523682 2.16804199 0.01047363 3.28491211 0.01586914 C5.03964844 0.02070313 5.03964844 0.02070313 6.82983398 0.02563477 C8.67738281 0.03820312 8.67738281 0.03820312 10.56225586 0.05102539 C12.41560547 0.05779297 12.41560547 0.05779297 14.30639648 0.06469727 C17.37089703 0.07652931 20.43530307 0.09301366 23.49975586 0.11352539 C23.49975586 0.44352539 23.49975586 0.77352539 23.49975586 1.11352539 C17.06475586 1.60852539 17.06475586 1.60852539 10.49975586 2.11352539 C11.48975586 2.44352539 12.47975586 2.77352539 13.49975586 3.11352539 C13.49975586 7.73352539 13.49975586 12.35352539 13.49975586 17.11352539 C16.79975586 17.11352539 20.09975586 17.11352539 23.49975586 17.11352539 C23.49975586 17.44352539 23.49975586 17.77352539 23.49975586 18.11352539 C18.54975586 18.60852539 18.54975586 18.60852539 13.49975586 19.11352539 C13.51546631 20.31477051 13.53117676 21.51601563 13.54736328 22.75366211 C13.60156471 27.20020878 13.63607013 31.64672613 13.66455078 36.09350586 C13.67965981 38.01998806 13.700148 39.94643575 13.72607422 41.87280273 C13.76236511 44.63802596 13.77946065 47.40279543 13.79272461 50.16821289 C13.80820847 51.03284149 13.82369232 51.89747009 13.83964539 52.78829956 C13.84033203 55.21459961 13.84033203 55.21459961 13.49975586 59.11352539 C12.50975586 59.77352539 11.51975586 60.43352539 10.49975586 61.11352539 C9.47362988 58.03514745 9.37885367 55.94778243 9.38623047 52.72412109 C9.386306 51.62320633 9.38638153 50.52229156 9.38645935 49.38801575 C9.39162064 48.20044174 9.39678192 47.01286774 9.40209961 45.78930664 C9.40351456 44.57276901 9.4049295 43.35623138 9.40638733 42.10282898 C9.41199274 38.21053629 9.42454619 34.31830075 9.43725586 30.42602539 C9.44227016 27.78995851 9.44683319 25.15389073 9.45092773 22.51782227 C9.46196393 16.04970375 9.47870736 9.58161865 9.49975586 3.11352539 C8.3434668 3.14833008 8.3434668 3.14833008 7.16381836 3.18383789 C6.16092773 3.20188477 5.15803711 3.21993164 4.12475586 3.23852539 C3.12702148 3.26172852 2.12928711 3.28493164 1.10131836 3.30883789 C-1.50024414 3.11352539 -1.50024414 3.11352539 -3.50024414 1.11352539 C-2.50024414 0.11352539 -2.50024414 0.11352539 0 0 Z " fill="#BA68D6" transform="translate(36.500244140625,26.886474609375)"/>
<path d="M0 0 C3.5624827 -0.02913821 7.12493454 -0.04684529 10.6875 -0.0625 C12.19860352 -0.07506836 12.19860352 -0.07506836 13.74023438 -0.08789062 C14.71669922 -0.09111328 15.69316406 -0.09433594 16.69921875 -0.09765625 C18.04246216 -0.10551147 18.04246216 -0.10551147 19.4128418 -0.11352539 C22.03641759 0.00159802 24.44293053 0.41765715 27 1 C27 1.33 27 1.66 27 2 C25.25008666 2.02715383 23.50005055 2.04646551 21.75 2.0625 C20.28820312 2.07990234 20.28820312 2.07990234 18.796875 2.09765625 C16.34241322 2.01195577 14.33831086 1.70706066 12 1 C11.91921359 3.12438339 11.86090859 5.2496323 11.8125 7.375 C11.77769531 8.55835938 11.74289063 9.74171875 11.70703125 10.9609375 C11.80371094 11.96382812 11.90039062 12.96671875 12 14 C12.99 14.66 13.98 15.32 15 16 C12.03 16 9.06 16 6 16 C6 11.38 6 6.76 6 2 C3.03 1.505 3.03 1.505 0 1 C0 0.67 0 0.34 0 0 Z " fill="#D2A4E9" transform="translate(44,28)"/>
<path d="M0 0 C0.66 0 1.32 0 2 0 C1.49396008 2.16874252 1.00016187 3.99967627 0 6 C-0.66 6 -1.32 6 -2 6 C-2.38478516 6.83337891 -2.38478516 6.83337891 -2.77734375 7.68359375 C-4.65836437 11.24731653 -7.08330037 14.39998907 -9.44140625 17.66015625 C-11.14400881 19.99411708 -11.14400881 19.99411708 -12 23 C-12.66 23 -13.32 23 -14 23 C-15.625 20.5 -15.625 20.5 -17 18 C-15.68 18.33 -14.36 18.66 -13 19 C-12.72220703 18.41573242 -12.44441406 17.83146484 -12.15820312 17.22949219 C-10.29840937 13.64946761 -7.87766958 10.50009615 -5.5 7.25 C-4.75169922 6.20392578 -4.75169922 6.20392578 -3.98828125 5.13671875 C-3.50746094 4.47800781 -3.02664062 3.81929687 -2.53125 3.140625 C-2.09361328 2.53766602 -1.65597656 1.93470703 -1.20507812 1.31347656 C-0.80740234 0.8800293 -0.40972656 0.44658203 0 0 Z " fill="#EBCEF0" transform="translate(102,18)"/>
<path d="M0 0 C2.89589652 -0.02706445 5.79153795 -0.04687029 8.6875 -0.0625 C9.91243164 -0.07506836 9.91243164 -0.07506836 11.16210938 -0.08789062 C15.24499084 -0.10442051 19.01651707 -0.03035098 23 1 C23 1.33 23 1.66 23 2 C21.25008666 2.02715383 19.50005055 2.04646551 17.75 2.0625 C16.28820312 2.07990234 16.28820312 2.07990234 14.796875 2.09765625 C12 2 12 2 8 1 C8 5.29 8 9.58 8 14 C7.01 14 6.02 14 5 14 C5.33 10.04 5.66 6.08 6 2 C3.03 1.505 3.03 1.505 0 1 C0 0.67 0 0.34 0 0 Z " fill="#E5CAF2" transform="translate(48,28)"/>
<path d="M0 0 C1.084021 0.00523682 2.16804199 0.01047363 3.28491211 0.01586914 C5.03964844 0.02070313 5.03964844 0.02070313 6.82983398 0.02563477 C8.67738281 0.03820312 8.67738281 0.03820312 10.56225586 0.05102539 C12.41560547 0.05779297 12.41560547 0.05779297 14.30639648 0.06469727 C17.37089703 0.07652931 20.43530307 0.09301366 23.49975586 0.11352539 C23.49975586 0.44352539 23.49975586 0.77352539 23.49975586 1.11352539 C17.06475586 1.60852539 17.06475586 1.60852539 10.49975586 2.11352539 C10.49975586 2.44352539 10.49975586 2.77352539 10.49975586 3.11352539 C8.54172079 3.16741626 6.58326677 3.20626756 4.62475586 3.23852539 C3.53420898 3.26172852 2.44366211 3.28493164 1.32006836 3.30883789 C-1.50024414 3.11352539 -1.50024414 3.11352539 -3.50024414 1.11352539 C-2.50024414 0.11352539 -2.50024414 0.11352539 0 0 Z " fill="#B371E2" transform="translate(36.500244140625,26.886474609375)"/>
<path d="M0 0 C0.66 0 1.32 0 2 0 C1.49396008 2.16874252 1.00016187 3.99967627 0 6 C-0.66 6 -1.32 6 -2 6 C-2.433125 6.928125 -2.433125 6.928125 -2.875 7.875 C-4 10 -4 10 -6 12 C-6 7.68361981 -5.63564501 6.993417 -3.125 3.75 C-2.59132813 3.04359375 -2.05765625 2.3371875 -1.5078125 1.609375 C-0.76144531 0.81273438 -0.76144531 0.81273438 0 0 Z " fill="#D79FE2" transform="translate(102,18)"/>
<path d="M0 0 C0.33 0.66 0.66 1.32 1 2 C3.31 2 5.62 2 8 2 C7.67 2.66 7.34 3.32 7 4 C4.36 4 1.72 4 -1 4 C-0.67 2.68 -0.34 1.36 0 0 Z " fill="#F0D6F0" transform="translate(50,95)"/>
<path d="M0 0 C1.33332095 2.6666419 0.67102033 4.16680303 0 7 C-0.66 7 -1.32 7 -2 7 C-3.625 4.5 -3.625 4.5 -5 2 C-3.68 2.33 -2.36 2.66 -1 3 C-0.67 2.01 -0.34 1.02 0 0 Z " fill="#E7C3EC" transform="translate(90,34)"/>
</svg>
