<?xml version="1.0" encoding="UTF-8"?>
<svg id="Capa_2" data-name="Capa 2" xmlns="http://www.w3.org/2000/svg" xmlns:xlink="http://www.w3.org/1999/xlink" viewBox="0 0 791.37 298.98">
  <defs>
    <style>
      .cls-1 {
        fill: url(#Degradado_sin_nombre_793);
      }
    </style>
    <linearGradient id="Degradado_sin_nombre_793" data-name="Degradado sin nombre 793" x1="0" y1="149.49" x2="791.37" y2="149.49" gradientUnits="userSpaceOnUse">
      <stop offset="0" stop-color="#fff"/>
      <stop offset="1" stop-color="#fff"/>
    </linearGradient>
  </defs>
  <g id="Capa_2-2" data-name="Capa 2">
    <path class="cls-1" d="M157.83,225.49c-47.2,0-78.92-33.27-78.92-79.3,0-43.21,28.59-77.52,71.57-80.55l-23.95-33.77L104.24.44c-23.07,7.99-44.41,21.25-61.3,38.6C15.08,67.66,0,105.96,0,145.8c0,43.33,14.7,81.24,46.81,110.25,30.17,27.46,68.85,42.94,109.47,42.94,23.59,0,41.78-5.8,66.92-13.54v-90.9c-15.86,18.96-40.61,30.95-65.37,30.95ZM436.14,88.1l-98.5,126.13v-62.76L445.06,0h-90.8l-54.49,79.21L245.28,0h-90.81l107.42,151.48v139.88h30.11M498.54.1l-22.53,31.77-20.68,29.15,12.3.03c29.36,0,54.49.39,54.49,37.1s-27.05,35.55-54.49,35.55h-63.84l-24.65,34.76v122.9h75.74v-96.61h42.89c66.08,0,103.17-30.14,103.17-98.92S559.23,1.18,498.54.1ZM558.99,219.89c-4.26-7.55-9.68-13.01-16.25-16.36-6.58-3.35-22.29-5.03-35.82-5.03,0,0,.04,0,.04,17.01l8.23.08c11.01,0,19.01,2.45,23.99,7.35,5.53,5.45,8.29,13.12,8.29,23,0,6.42-1.16,11.83-3.48,16.22-2.32,4.39-5.31,7.52-8.96,9.38-3.65,1.86-9.52,2.79-17.63,2.79h-8.23s48.36-75.34,48.36-75.34c-2.75,3.3-67.28,83.87-74.47,92.62h26.94c14.95,0,23.42-.76,28.31-2.28,4.89-1.52,9.43-4.26,13.63-8.23,4.19-3.97,7.48-8.96,9.87-14.97,2.38-6.01,3.57-12.6,3.57-19.78,0-10.08-2.13-18.9-6.39-26.46ZM566.37,291.55h18.42l7.57-19.18h37.99l7.28,19.18h18.42l-35.81-93.1h-17.97l-35.9,93.1ZM623.79,255.1h-24.91l12.49-31.96,12.42,31.96ZM653.58,215.92h16.52v75.63h17.97v-75.63h16.96v-17.47h-51.46v17.47ZM701.69,291.55h18.42l7.57-19.18h37.99l7.28,19.18h18.42l-35.81-93.1h-17.97l-35.9,93.1ZM759.1,255.1h-24.91l12.49-31.96,12.42,31.96Z"/>
  </g>
</svg>