<?xml version="1.0" encoding="UTF-8"?>
<svg id="Capa_2" data-name="Capa 2" xmlns="http://www.w3.org/2000/svg" xmlns:xlink="http://www.w3.org/1999/xlink" viewBox="0 0 436.55 436.55">
  <defs>
    <style>
      .cls-1 {
        fill: url(#Degradado_sin_nombre_793);
      }

      .cls-2 {
        fill: url(#Degradado_sin_nombre_770);
      }
    </style>
    <linearGradient id="Degradado_sin_nombre_770" data-name="Degradado sin nombre 770" x1="0" y1="218.27" x2="436.55" y2="218.27" gradientUnits="userSpaceOnUse">
      <stop offset="0" stop-color="#a476ff"/>
      <stop offset="1" stop-color="#7c52ef"/>
    </linearGradient>
    <linearGradient id="Degradado_sin_nombre_793" data-name="Degradado sin nombre 793" x1="67.38" y1="218.27" x2="361.83" y2="218.27" gradientUnits="userSpaceOnUse">
      <stop offset="0" stop-color="#fff"/>
      <stop offset="1" stop-color="#fff"/>
    </linearGradient>
  </defs>
  <g id="Capa_2-2" data-name="Capa 2">
    <g>
      <rect class="cls-2" y="0" width="436.55" height="436.55" rx="50" ry="50"/>
      <path class="cls-1" d="M338.98,128.28c-15.23-27.02-34.61-46.52-58.13-58.52-23.53-12-79.74-18-128.14-18,0,0,.15,0,.15,60.84l29.44.29c39.39,0,67.99,8.77,85.8,26.29,19.77,19.49,29.66,46.92,29.66,82.27,0,22.97-4.15,42.31-12.45,58.02-8.3,15.71-18.98,26.9-32.04,33.54-13.06,6.65-34.07,9.97-63.05,9.97h-29.43v-.05L333.76,53.47c-9.84,11.82-240.67,300.01-266.38,331.32h96.36c53.46,0,83.77-2.72,101.27-8.15,17.49-5.43,33.74-15.24,48.75-29.43,15.01-14.18,26.77-32.04,35.29-53.54,8.52-21.51,12.78-45.09,12.78-70.75,0-36.07-7.62-67.62-22.85-94.64Z"/>
    </g>
  </g>
</svg>